<svg id="Camada_1" data-name="Camada 1" xmlns="http://www.w3.org/2000/svg" viewBox="0 0 442.82 280.69"><defs><style>.cls-1{fill:#ee7516;}</style></defs><path class="cls-1" d="M81.13,510.25c-4.17-1.95-12-3.2-13.5-6.94-2-5.2-.93-13.16,1.82-18.37,6-11.49,16.67-18.39,29.26-21.7,6.52-1.71,8.43-5.25,8.8-12.06,1.58-29,4-57.92,6.13-86.87,1.16-15.48-7.58-27.63-14.5-39.93-8.07-14.35-18.9-27.13-27.36-41.3-2.86-4.79-3.53-11.91-2.74-17.63,1.3-9.49,18.82-22.29,28.51-22.29,12.25,0,22.88,2.93,34.07,9.6,40,23.83,81.3,45.5,121.83,68.47,20.09,11.39,40.4,22.7,59.16,36.07,21.62,15.42,23.94,33.7,10.09,56.31-14.2,23.19-36.07,37.12-59.89,48-36.58,16.7-75.09,27.7-114.41,35.76C126.7,501.81,104.89,505.72,81.13,510.25Zm99.24-163.51c1.45,18.16,3.9,34.27,3.69,50.34s-3.05,32.1-4.69,47.73c31.11-7.1,81.72-20.88,94.77-34.4C247.62,382.54,212.08,368.31,180.37,346.74Z" transform="translate(-66.58 -239.83)"/><path class="cls-1" d="M418.78,328.84c10.33-21.38,19.33-41.52,29.78-60.87,3.69-6.84,10.23-12.68,16.64-17.39,14.41-10.6,35.48-1.19,36.1,16.53,1.05,29.65.75,59.36.79,89.05.06,33.51-.26,67,0,100.54A22.37,22.37,0,0,0,505.86,468c6.74,10.32,2.79,19.37-3,27.89-5.59,8.19-12.59,14.8-23.85,13.74-6.84-.65-15.46,2.85-19.37-5.18-4-8.19-8.22-17.31-8.44-26.12-.7-29.36.34-58.76.71-88.15,0-3.75,0-7.49,0-13.9-1.88,4.12-2.88,6-3.64,8-2.57,6.72-4.63,13.67-7.67,20.17-5.09,10.86-12.19,19.63-25.28,21.35-17.11,2.25-28.07-5.54-35.75-23.67-2.17,14.44-2.82,26.45-5.92,37.79q-9.22,33.78-20.76,66.92c-5.34,15.35-20.88,14.87-33.6,12.24-7.32-1.51-8.8-8.43-7.33-15.18,2.91-13.37,7-26.53,9.18-40,5.29-32.38,9.8-64.9,14.59-97.36,3.33-22.56,6.16-45.2,10.07-67.66,2.38-13.69,4.7-27.8,10.07-40.44,6.88-16.17,20-21.28,37.26-17.38,9.82,2.22,10.93,11.08,12.49,19C410.07,282.73,414.31,305.41,418.78,328.84Z" transform="translate(-66.58 -239.83)"/></svg>